<svg width="17" height="16" viewBox="0 0 17 16" fill="none" xmlns="http://www.w3.org/2000/svg">
	<path d="M6.91699 9.33333H8.25033M8.25033 9.33333H9.58366M8.25033 9.33333V10.6667M8.25033 9.33333V8" stroke="white" stroke-linecap="round" />
	<path d="M14.9163 7.86396C14.9163 6.10906 14.9163 5.2316 14.4033 4.66125C14.3562 4.60879 14.3063 4.55886 14.2538 4.51167C13.6834 3.9987 12.806 3.9987 11.0511 3.9987H10.8019C10.0328 3.9987 9.64827 3.9987 9.28994 3.89655C9.09307 3.84043 8.90327 3.76184 8.72441 3.66232C8.39881 3.48114 8.12687 3.20922 7.58301 2.66536L7.21614 2.29853C7.03387 2.11625 6.94274 2.0251 6.84697 1.9457C6.43402 1.60339 5.92744 1.39356 5.39339 1.34362C5.26951 1.33203 5.14062 1.33203 4.88284 1.33203C4.29449 1.33203 4.00031 1.33203 3.75527 1.37826C2.67655 1.58179 1.83277 2.42557 1.62924 3.50429C1.58301 3.74933 1.58301 4.04351 1.58301 4.63186M14.9105 10.6654C14.8866 12.3184 14.764 13.2556 14.1353 13.8843C13.3543 14.6654 12.0971 14.6654 9.58301 14.6654H6.91634C4.40218 14.6654 3.14511 14.6654 2.36405 13.8843C1.58301 13.1033 1.58301 11.8462 1.58301 9.33203V7.33203" stroke="white" stroke-linecap="round" />
</svg>
