<svg width="17" height="16" viewBox="0 0 17 16" fill="none" xmlns="http://www.w3.org/2000/svg">
<g clip-path="url(#clip0_11_55399)">
<path d="M4.744 1C3.486 1.015 2.565 0.971 1.812 1.387C1.42211 1.60812 1.12417 1.9614 0.972 2.383C0.809 2.82 0.75 3.343 0.75 4V12C0.75 12.658 0.808 13.179 0.973 13.617C1.137 14.056 1.436 14.407 1.813 14.615C2.565 15.031 3.486 14.985 4.744 15H10.75V14H4.75C3.49 13.985 2.663 13.94 2.297 13.738C2.114 13.638 2.007 13.526 1.91 13.266C1.813 13.006 1.75 12.592 1.75 12V8C1.75 7.408 1.814 6.994 1.912 6.734C2.01 6.474 2.115 6.363 2.299 6.262C2.666 6.059 3.494 6.015 4.758 6H8.193L10.215 4H12.742C14.006 4.015 14.834 4.06 15.202 4.262C15.385 4.362 15.49 4.474 15.588 4.734C15.686 4.994 15.75 5.408 15.75 6V10H16.75V6C16.75 5.342 16.692 4.821 16.527 4.383C16.507 4.328 16.479 4.279 16.453 4.229L16.426 4.172C16.2643 3.84175 16.0072 3.5676 15.688 3.385C14.935 2.969 14.014 3.015 12.756 3H9.717L7.695 1H4.746H4.744ZM4.756 2H7.286L9.05 3.746L7.783 5H4.744C3.486 5.014 2.565 4.97 1.812 5.385C1.79 5.397 1.772 5.415 1.75 5.428V4C1.75 3.408 1.812 2.994 1.91 2.734C2.008 2.474 2.113 2.363 2.297 2.262C2.663 2.059 3.492 2.015 4.756 2Z" fill="white"/>
<path d="M13.75 11V13H11.75V14H13.75V16H14.75V14H16.75V13H14.75V11H13.75Z" fill="white"/>
</g>
<defs>
<clipPath id="clip0_11_55399">
<rect width="16" height="16" fill="white" transform="translate(0.75)"/>
</clipPath>
</defs>
</svg>
