<svg width="19" height="24" viewBox="0 0 19 24" fill="none" xmlns="http://www.w3.org/2000/svg">
<path d="M18.999 12.7139C18.9992 13.1629 18.9985 13.5995 18.9998 14.0361C19.0011 14.4249 18.8125 14.6175 18.4253 14.6197C18.4085 14.6198 18.3917 14.6197 18.3576 14.6197C18.3576 14.6657 18.3576 14.7102 18.3576 14.7546C18.3576 16.9885 18.3561 19.2223 18.3582 21.4561C18.3593 22.7425 17.4423 23.7756 16.2753 23.9559C16.1311 23.9782 15.9845 23.9973 15.839 23.9974C11.3905 23.9997 6.94212 24.0012 2.49369 23.9987C1.27502 23.998 0.226173 23.0997 0.0299524 21.9C0.00956073 21.7754 0.00122392 21.6473 0.00119682 21.5208C-0.000156866 15.1754 -3.37238e-05 8.83007 4.1772e-05 2.48471C5.56221e-05 1.31084 0.909886 0.229156 2.05596 0.0470893C2.23712 0.0183102 2.42223 0.00189855 2.60553 0.00180289C6.99101 -0.000486381 11.3765 -0.000310416 15.762 0.000759185C16.9911 0.00105901 18.0047 0.801486 18.2907 2.00395C18.3352 2.1909 18.3533 2.38825 18.3546 2.581C18.361 3.52195 18.3576 4.46297 18.3576 5.40397C18.3576 5.45024 18.3576 5.49651 18.3576 5.54279C18.3642 5.53195 18.3708 5.52112 18.3774 5.51028C18.521 5.56463 18.6761 5.59978 18.8051 5.67846C18.9487 5.76598 18.9997 5.92427 18.9995 6.09523C18.9988 6.74799 19.0018 7.40077 18.9981 8.0535C18.9963 8.3565 18.7792 8.56458 18.4781 8.56623C18.4414 8.56643 18.4046 8.56625 18.3627 8.56625C18.3627 9.71293 18.3627 10.8511 18.3627 12.0054C18.4393 12.0054 18.5153 11.9947 18.5871 12.0074C18.8053 12.0463 18.9722 12.2357 18.9923 12.4603C18.9995 12.5402 18.9971 12.621 18.999 12.7139ZM17.4009 17.0741C17.4009 14.7808 17.3973 12.4875 17.4044 10.1943C17.4057 9.79544 17.3232 9.44919 16.9925 9.19305C17.3066 8.91331 17.4056 8.56225 17.404 8.15622C17.397 6.30383 17.401 4.4514 17.4009 2.59899C17.4008 1.71561 16.6815 0.986688 15.8097 0.986673C11.3904 0.986599 6.97113 0.989054 2.55186 0.984662C1.63626 0.983752 0.94037 1.75853 0.946877 2.58793C0.961543 4.45718 0.954566 6.32664 0.949176 8.19599C0.948058 8.5838 1.0481 8.91969 1.34147 9.19074C1.08742 9.42216 0.949648 9.69924 0.949905 10.0484C0.952708 13.8634 0.951925 17.6784 0.953848 21.4935C0.953907 21.611 0.962432 21.7305 0.984462 21.8457C1.10709 22.4867 1.74556 23.013 2.39411 23.013C3.5944 23.0131 4.79471 23.01 5.99499 23.0146C6.43963 23.0163 6.77412 22.8252 7.01196 22.4564C7.084 22.3447 7.16682 22.2982 7.29929 22.2987C8.54154 22.3024 9.78382 22.3032 11.0261 22.2978C11.1702 22.2972 11.2525 22.3508 11.3328 22.4658C11.571 22.807 11.8822 23.0172 12.318 23.0151C13.5309 23.0092 14.7438 23.014 15.9566 23.0113C16.0555 23.0111 16.1569 22.9961 16.2526 22.9705C16.9561 22.7827 17.4009 22.1955 17.4009 21.4613C17.4009 20.0074 17.4009 18.5534 17.4009 17.0741Z" fill="#4D7DBF"/>
<path d="M17.4004 17.0865C17.4004 18.5532 17.4004 20.0071 17.4004 21.4611C17.4003 22.1952 16.9556 22.7824 16.2521 22.9702C16.1564 22.9958 16.0549 23.0108 15.9561 23.011C14.7432 23.0137 13.5303 23.0089 12.3175 23.0148C11.8817 23.0169 11.5705 22.8068 11.3323 22.4656C11.2519 22.3505 11.1696 22.2969 11.0255 22.2975C9.78327 22.3029 8.541 22.3021 7.29874 22.2984C7.16628 22.298 7.08345 22.3444 7.01142 22.4561C6.77358 22.825 6.43909 23.016 5.99444 23.0143C4.79417 23.0098 3.59386 23.0129 2.39356 23.0127C1.74501 23.0127 1.10654 22.4865 0.983919 21.8454C0.961889 21.7302 0.953365 21.6107 0.953305 21.4932C0.951383 17.6782 0.952165 13.8631 0.949362 10.0481C0.949106 9.69895 1.08688 9.42187 1.34093 9.19046C1.04755 8.9194 0.947515 8.58351 0.948633 8.1957C0.954024 6.32635 0.961 4.4569 0.946334 2.58765C0.939827 1.75825 1.63571 0.983466 2.55132 0.984376C6.97058 0.988768 11.3899 0.986313 15.8091 0.986387C16.681 0.986402 17.4003 1.71532 17.4003 2.59871C17.4005 4.45112 17.3965 6.30355 17.4035 8.15593C17.405 8.56197 17.306 8.91302 16.992 9.19277C17.3227 9.4489 17.4051 9.79516 17.4039 10.194C17.3967 12.4872 17.4004 14.7805 17.4004 17.0865ZM7.44105 21.6646C8.65812 21.6646 9.87519 21.6674 11.0922 21.6628C11.4124 21.6615 11.6504 21.7944 11.8053 22.0687C11.9307 22.2908 12.1189 22.392 12.3592 22.3928C13.5218 22.3963 14.6843 22.3948 15.8469 22.3941C16.3673 22.3937 16.7575 21.9909 16.7565 21.4778C16.7498 17.6923 16.7522 13.9069 16.7548 10.1214C16.755 9.91768 16.6909 9.75773 16.5446 9.61714C16.2785 9.36137 16.2717 9.05928 16.5344 8.79889C16.6963 8.63838 16.7577 8.45816 16.7563 8.23388C16.7508 7.32676 16.7544 6.41959 16.7543 5.51244C16.7541 4.55442 16.7409 3.59617 16.7576 2.63846C16.7678 2.0558 16.2771 1.63878 15.761 1.64011C11.3584 1.65143 6.95579 1.6498 2.55322 1.6422C2.08223 1.64139 1.57044 2.02885 1.57532 2.63195C1.5903 4.48004 1.58367 6.32835 1.57704 8.17654C1.5761 8.43815 1.63864 8.64876 1.83108 8.83295C2.04224 9.03507 2.04278 9.29523 1.86145 9.52502C1.83017 9.56466 1.79672 9.60311 1.76045 9.63806C1.63175 9.76208 1.57253 9.91278 1.57921 10.0921C1.58252 10.181 1.58073 10.2701 1.58074 10.3591C1.58086 14.0597 1.58078 17.7604 1.5819 21.4611C1.58193 21.5491 1.58283 21.6405 1.60472 21.7246C1.71245 22.1387 2.04833 22.3926 2.4938 22.3935C3.66894 22.3959 4.84409 22.3962 6.01921 22.3923C6.22633 22.3916 6.39605 22.3053 6.50828 22.116C6.63934 21.8949 6.81771 21.7261 7.07795 21.6791C7.18797 21.6593 7.30315 21.6686 7.44105 21.6646Z" fill="#FDFDFD"/>
<path d="M7.42843 21.6651C7.30306 21.6691 7.18787 21.6598 7.07785 21.6796C6.81761 21.7266 6.63924 21.8954 6.50819 22.1165C6.39595 22.3059 6.22624 22.3922 6.01912 22.3928C4.84399 22.3967 3.66884 22.3964 2.49371 22.394C2.04824 22.3931 1.71236 22.1392 1.60462 21.7251C1.58274 21.641 1.58183 21.5496 1.58181 21.4616C1.58068 17.7609 1.58077 14.0603 1.58064 10.3596C1.58064 10.2706 1.58243 10.1815 1.57912 10.0926C1.57243 9.9133 1.63165 9.7626 1.76036 9.63858C1.79663 9.60363 1.83007 9.56518 1.86135 9.52554C2.04268 9.29575 2.04215 9.03559 1.83098 8.83347C1.63855 8.64928 1.576 8.43867 1.57694 8.17706C1.58358 6.32887 1.5902 4.48056 1.57523 2.63247C1.57034 2.02937 2.08213 1.64191 2.55312 1.64272C6.95569 1.65032 11.3583 1.65195 15.7609 1.64063C16.277 1.6393 16.7677 2.05633 16.7575 2.63898C16.7408 3.5967 16.754 4.55494 16.7542 5.51296C16.7543 6.42011 16.7507 7.32728 16.7562 8.2344C16.7576 8.45868 16.6962 8.6389 16.5343 8.79941C16.2716 9.0598 16.2784 9.36189 16.5445 9.61766C16.6908 9.75825 16.7549 9.9182 16.7547 10.122C16.7521 13.9074 16.7497 17.6928 16.7565 21.4783C16.7574 21.9914 16.3672 22.3943 15.8468 22.3946C14.6842 22.3953 13.5217 22.3969 12.3591 22.3933C12.1188 22.3926 11.9306 22.2913 11.8052 22.0693C11.6503 21.795 11.4123 21.6621 11.0921 21.6633C9.8751 21.6679 8.65802 21.6651 7.42843 21.6651ZM7.74294 11.5675C6.84901 11.5675 5.95508 11.5666 5.06116 11.5686C4.94862 11.5688 4.83538 11.5779 4.72371 11.5926C3.91928 11.6984 3.27338 12.4389 3.27324 13.2539C3.27288 15.1996 3.27246 17.1453 3.27481 19.091C3.27494 19.1996 3.29368 19.3093 3.31438 19.4164C3.46623 20.2018 4.20932 20.8171 5.08622 20.8126C7.81413 20.7987 10.5422 20.8077 13.2701 20.8072C13.3708 20.8072 13.4726 20.8102 13.5719 20.7967C14.3988 20.684 15.0581 19.918 15.0583 19.0726C15.0586 17.1566 15.0587 15.2406 15.0574 13.3246C15.0574 13.2363 15.0489 13.1473 15.0358 13.0599C14.9051 12.1849 14.1942 11.5674 13.3206 11.5675C11.4698 11.5676 9.61895 11.5675 7.74294 11.5675ZM11.8768 9.91885C12.6331 9.78648 13.2394 9.05139 13.2408 8.25757C13.2431 6.91842 13.2423 5.57926 13.2411 4.2401C13.241 4.12197 13.2337 4.00332 13.2213 3.88581C13.1402 3.1157 12.4473 2.48793 11.6787 2.48768C10.0382 2.48715 8.39766 2.48702 6.75711 2.48864C6.64064 2.48876 6.52314 2.49721 6.40789 2.51417C5.68257 2.6209 5.08649 3.31705 5.0863 4.0546C5.08595 5.47004 5.08618 6.88548 5.08633 8.30092C5.08634 8.34751 5.08346 8.39475 5.08977 8.44059C5.21044 9.3174 5.94852 9.96521 6.82609 9.9653C8.37852 9.96545 9.93096 9.96621 11.4834 9.96362C11.6078 9.96341 11.7322 9.93925 11.8768 9.91885ZM3.85247 3.74132C3.85279 3.65373 3.86458 3.56434 3.85135 3.47889C3.80693 3.19195 3.56069 2.98092 3.24913 2.95205C2.99352 2.92837 2.71384 3.11744 2.61789 3.37879C2.5227 3.63806 2.61495 3.94479 2.83645 4.10949C3.22525 4.3986 3.72228 4.1913 3.85247 3.74132ZM14.8508 4.19206C14.9904 4.25193 15.1341 4.26348 15.2775 4.21426C15.5311 4.1272 15.6947 3.947 15.7331 3.68155C15.7696 3.42908 15.6683 3.21598 15.4576 3.07256C15.2358 2.92156 14.9982 2.90261 14.7655 3.04936C14.3485 3.31231 14.3298 3.91295 14.8508 4.19206ZM7.94439 11.0593C7.75139 11.0593 7.55828 11.0552 7.36542 11.0604C7.18968 11.0652 7.05161 10.99 6.93214 10.8709C6.89548 10.8343 6.86845 10.7879 6.83013 10.7368C6.80869 11.0571 7.10128 11.2856 7.33643 11.2859C8.56157 11.2872 9.78672 11.2886 11.0119 11.2858C11.2848 11.2851 11.5296 11.0128 11.4933 10.7468C11.3389 11.0153 11.1055 11.0665 10.8268 11.0634C9.8745 11.0526 8.922 11.0593 7.94439 11.0593Z" fill="#4D7DBF"/>
<path d="M11.867 9.92154C11.7325 9.93826 11.6081 9.96241 11.4836 9.96262C9.93121 9.96522 8.37877 9.96446 6.82634 9.9643C5.94878 9.96421 5.2107 9.3164 5.09003 8.43959C5.08372 8.39376 5.08659 8.34651 5.08659 8.29992C5.08643 6.88448 5.08621 5.46904 5.08656 4.0536C5.08674 3.31606 5.68283 2.6199 6.40815 2.51318C6.52339 2.49622 6.6409 2.48776 6.75737 2.48765C8.39791 2.48603 10.0385 2.48616 11.679 2.48669C12.4476 2.48694 13.1405 3.11471 13.2216 3.88482C13.2339 4.00233 13.2413 4.12098 13.2414 4.2391C13.2425 5.57826 13.2433 6.91742 13.241 8.25658C13.2397 9.0504 12.6333 9.78549 11.867 9.92154ZM7.26473 3.09695C7.06754 3.09697 6.87032 3.09467 6.67316 3.09746C6.1992 3.10415 5.7689 3.47194 5.71839 3.9472C5.68543 4.25731 5.69632 4.57267 5.69571 4.8857C5.69362 5.96632 5.70108 7.04698 5.69331 8.12754C5.68729 8.96468 6.36251 9.36595 6.91603 9.35973C8.42208 9.34279 9.92844 9.35436 11.4347 9.35277C11.5302 9.35267 11.6279 9.34692 11.7207 9.32624C12.2169 9.21574 12.6243 8.75645 12.62 8.24279C12.6083 6.84444 12.6161 5.44593 12.6155 4.04748C12.6155 3.99275 12.6156 3.93661 12.6045 3.88352C12.5085 3.4252 12.1049 3.0977 11.6324 3.09734C10.1849 3.09625 8.73741 3.09695 7.26473 3.09695Z" fill="#FEFEFE"/>
<path d="M3.85185 3.75073C3.72272 4.19047 3.22569 4.39778 2.83688 4.10866C2.61539 3.94396 2.52314 3.63723 2.61832 3.37796C2.71427 3.11661 2.99396 2.92754 3.24957 2.95122C3.56112 2.98009 3.80737 3.19112 3.85178 3.47806C3.86501 3.56351 3.85322 3.6529 3.85185 3.75073Z" fill="#FDFDFD"/>
<path d="M14.8418 4.18939C14.33 3.91342 14.3487 3.31278 14.7657 3.04983C14.9984 2.90308 15.236 2.92203 15.4578 3.07303C15.6685 3.21645 15.7698 3.42955 15.7333 3.68202C15.6949 3.94747 15.5313 4.12767 15.2777 4.21473C15.1343 4.26395 14.9906 4.2524 14.8418 4.18939Z" fill="#FDFDFD"/>
<path d="M13.2453 12.1949C13.9442 12.1437 14.3692 12.6631 14.4466 13.1839C14.4534 13.2297 14.454 13.2767 14.454 13.3231C14.4543 15.2259 14.4557 17.1287 14.4535 19.0314C14.4527 19.6917 13.9209 20.1967 13.306 20.1944C10.5537 20.1841 7.80127 20.19 5.04889 20.1899C4.39546 20.1899 3.88 19.6726 3.87971 19.0141C3.87885 17.1029 3.8787 15.1917 3.87917 13.2804C3.8793 12.7287 4.34164 12.2296 4.8878 12.2017C5.15568 12.188 5.42466 12.1954 5.69315 12.1953C8.20636 12.1949 10.7196 12.195 13.2453 12.1949ZM13.525 18.6755C13.525 16.9673 13.5205 15.259 13.5294 13.5509C13.5308 13.2806 13.3754 13.081 13.0605 13.0828C11.4113 13.0923 9.76197 13.0867 8.11269 13.0865C7.16424 13.0864 6.2158 13.0863 5.26735 13.0865C4.96578 13.0866 4.80903 13.2418 4.80897 13.5425C4.80861 15.2973 4.80861 17.0521 4.80906 18.807C4.80913 19.0578 4.96876 19.2231 5.21078 19.2232C7.85048 19.2236 10.4902 19.2236 13.1299 19.2233C13.3165 19.2233 13.4749 19.1117 13.5143 18.9406C13.5321 18.8639 13.5221 18.7807 13.525 18.6755Z" fill="#4D7DBF"/>
<path d="M7.27742 3.09853C8.73751 3.09853 10.185 3.09783 11.6325 3.09892C12.105 3.09928 12.5086 3.42678 12.6046 3.8851C12.6157 3.93819 12.6156 3.99433 12.6156 4.04905C12.6162 5.4475 12.6084 6.84602 12.6201 8.24437C12.6244 8.75803 12.217 9.21732 11.7208 9.32783C11.628 9.3485 11.5303 9.35425 11.4348 9.35435C9.92854 9.35594 8.42218 9.34437 6.91612 9.36131C6.3626 9.36754 5.68738 8.96627 5.6934 8.12912C5.70117 7.04856 5.69371 5.96789 5.6958 4.88728C5.69641 4.57425 5.68552 4.25889 5.71848 3.94878C5.76899 3.47352 6.1993 3.10573 6.67326 3.09904C6.87041 3.09625 7.06763 3.09855 7.27742 3.09853ZM7.42949 8.09575C8.09253 8.68624 8.85567 8.9107 9.72456 8.72044C11.2864 8.37845 12.1046 6.72613 11.4903 5.24677C11.0112 4.09293 9.70695 3.46304 8.51049 3.7947C7.4835 4.07939 6.73139 4.96898 6.6534 6.02386C6.59432 6.82286 6.84522 7.51661 7.42949 8.09575Z" fill="#4D7DBF"/>
<path d="M7.42351 8.0881C6.84576 7.51517 6.59486 6.82143 6.65394 6.02243C6.73193 4.96754 7.48404 4.07795 8.51103 3.79327C9.70749 3.4616 11.0117 4.09149 11.4908 5.24533C12.1052 6.7247 11.2869 8.37701 9.7251 8.71901C8.85621 8.90927 8.09307 8.6848 7.42351 8.0881ZM9.31611 7.99546C9.37432 7.98867 9.43336 7.98606 9.49061 7.97446C10.413 7.78754 11.0494 6.92365 10.8816 5.94449C10.7179 4.98884 9.81035 4.3335 8.81189 4.53169C8.01202 4.69046 7.50447 5.38883 7.44346 6.10091C7.3515 7.1743 8.22714 8.08445 9.31611 7.99546Z" fill="#FDFDFD"/>
<path d="M9.30447 7.99721C8.22684 8.08429 7.3512 7.17414 7.44316 6.10074C7.50417 5.38867 8.01172 4.69029 8.81159 4.53153C9.81005 4.33334 10.7176 4.98868 10.8813 5.94433C11.0491 6.92349 10.4127 7.78738 9.49031 7.97429C9.43306 7.9859 9.37402 7.9885 9.30447 7.99721ZM9.20064 5.56296C9.13406 5.56707 9.06479 5.56061 9.00134 5.57705C8.67482 5.66169 8.44988 5.98416 8.48776 6.30449C8.52831 6.64739 8.80123 6.9049 9.14166 6.92148C9.49913 6.93889 9.82526 6.64826 9.84602 6.29376C9.86864 5.90774 9.5918 5.58298 9.20064 5.56296Z" fill="#4D7DBF"/>
<path d="M9.2119 5.56445C9.59159 5.58417 9.86843 5.90894 9.84582 6.29496C9.82506 6.64945 9.49893 6.94009 9.14146 6.92268C8.80102 6.90609 8.52811 6.64859 8.48756 6.30569C8.44967 5.98536 8.67462 5.66289 9.00114 5.57825C9.06459 5.5618 9.13386 5.56826 9.2119 5.56445Z" fill="#FDFDFD"/>
</svg>
