<svg id="icon" xmlns="http://www.w3.org/2000/svg" height="24" viewBox="0 0 105 140" width="24"><path d="M82.3, 6L21.7, 6C13.1, 6, 6.2, 13, 6.2, 21.5L6.2, 122.8C6.2, 131.4, 13.2, 138.3, 21.7, 138.3L82.3, 138.3C90.9, 138.3, 97.8, 131.3, 97.8, 122.8L97.8, 21.4C97.8, 13, 90.9, 6, 82.3, 6z M14.8, 37.6C14.8, 30.8 20.2, 25.2 26.9, 25.2 33.6, 25.2 39, 30.7 39, 37.6 39, 44.4 33.6, 50 26.9, 50 20.2, 50 14.8, 44.4 14.8, 37.6z M51.7, 100.1C36.5, 100.1 24.2, 87.8 24.2, 72.6 24.2, 57.4 36.5, 45.1 51.7, 45.1 66.9, 45.1 79.2, 57.4 79.2, 72.6 79.2, 87.8 66.9, 100.1 51.7, 100.1z"/></svg>
