<svg width="17" height="17" viewBox="0 0 17 17" fill="none" xmlns="http://www.w3.org/2000/svg">
<path d="M8.5026 1.83203C4.8266 1.83203 1.83594 4.8227 1.83594 8.4987C1.83594 12.1747 4.8266 15.1654 8.5026 15.1654C12.1786 15.1654 15.1693 12.1747 15.1693 8.4987C15.1693 4.8227 12.1786 1.83203 8.5026 1.83203ZM8.5026 13.832C5.56194 13.832 3.16927 11.4394 3.16927 8.4987C3.16927 5.55803 5.56194 3.16536 8.5026 3.16536C11.4433 3.16536 13.8359 5.55803 13.8359 8.4987C13.8359 11.4394 11.4433 13.832 8.5026 13.832Z" fill="#535353"/>
<path d="M9.16927 5.16797H7.83594V9.16797H11.8359V7.83464H9.16927V5.16797Z" fill="#535353"/>
</svg>
