<svg width="20" height="15" viewBox="0 0 20 15" fill="none" xmlns="http://www.w3.org/2000/svg">
<path d="M1.00009 0.0267506H19.0001C19.1823 0.0273218 19.361 0.0775852 19.5168 0.172129C19.6726 0.266672 19.7996 0.401916 19.8843 0.563303C19.9689 0.72469 20.008 0.906111 19.9972 1.08803C19.9864 1.26996 19.9262 1.44549 19.8231 1.59575L10.8231 14.5958C10.4501 15.1348 9.55209 15.1348 9.17809 14.5958L0.178085 1.59575C0.0739103 1.44581 0.0128196 1.27018 0.00145064 1.08796C-0.00991832 0.905729 0.0288693 0.723872 0.113599 0.562143C0.198329 0.400414 0.325761 0.264997 0.48205 0.170607C0.638338 0.0762167 0.817505 0.0264626 1.00009 0.0267506Z" fill="black"/>
</svg>
