<svg width="12" height="12" viewBox="0 0 12 12" fill="none" xmlns="http://www.w3.org/2000/svg">
<path d="M0.664062 9.46993V10.9986C0.664062 11.087 0.699182 11.1718 0.761694 11.2343C0.824206 11.2968 0.90899 11.3319 0.997396 11.3319H2.5294C2.61763 11.3319 2.70226 11.2969 2.76473 11.2346L9.0634 4.93593L7.0634 2.93593L0.762063 9.2346C0.699506 9.29696 0.664258 9.3816 0.664062 9.46993ZM7.88873 2.10993L9.88873 4.10993L10.8621 3.1366C10.987 3.01158 11.0573 2.84204 11.0573 2.66526C11.0573 2.48849 10.987 2.31895 10.8621 2.19393L9.8054 1.1366C9.68038 1.01162 9.51084 0.941406 9.33406 0.941406C9.15729 0.941406 8.98775 1.01162 8.86273 1.1366L7.88873 2.10993Z" fill="white"/>
</svg>
