<svg width="16" height="16" viewBox="0 0 16 16" fill="none" xmlns="http://www.w3.org/2000/svg">
	<path d="M3.55566 4.10938H10.2223" stroke="#4487f3" stroke-linecap="round" />
	<path d="M3.55566 8H6.889" stroke="#4487f3" stroke-linecap="round" />
	<path d="M9.11035 8H12.4437" stroke="#4487f3" stroke-linecap="round" />
	<path d="M5.77734 11.8867H12.444" stroke="#4487f3" stroke-linecap="round" />
	<path d="M11.3328 5.22222C11.9464 5.22222 12.4439 4.72476 12.4439 4.11111C12.4439 3.49746 11.9464 3 11.3328 3C10.7191 3 10.2217 3.49746 10.2217 4.11111C10.2217 4.72476 10.7191 5.22222 11.3328 5.22222Z" stroke="#4487f3" stroke-linecap="round" />
	<path d="M7.99978 9.10894C8.61343 9.10894 9.11089 8.61148 9.11089 7.99783C9.11089 7.38418 8.61343 6.88672 7.99978 6.88672C7.38613 6.88672 6.88867 7.38418 6.88867 7.99783C6.88867 8.61148 7.38613 9.10894 7.99978 9.10894Z" stroke="#4487f3" stroke-linecap="round" />
	<path d="M4.66678 12.9996C5.28042 12.9996 5.77789 12.5021 5.77789 11.8885C5.77789 11.2748 5.28042 10.7773 4.66678 10.7773C4.05313 10.7773 3.55566 11.2748 3.55566 11.8885C3.55566 12.5021 4.05313 12.9996 4.66678 12.9996Z" stroke="#4487f3" stroke-linecap="round" />
</svg>
