<svg width="29" height="12" viewBox="0 0 29 12" fill="none" xmlns="http://www.w3.org/2000/svg">
<path d="M17.8402 9.92477C18.4632 9.9248 19.0674 9.91974 19.6715 9.92812C19.8449 9.93052 19.9001 9.87433 19.8955 9.70315C19.868 8.69391 20.1768 7.80007 20.8724 7.05447C21.4662 6.41789 22.2018 6.07685 23.0837 6.03104C23.9617 5.98543 24.7641 6.18209 25.4425 6.74257C26.1754 7.34806 26.6308 8.11532 26.7079 9.07999C26.7268 9.31658 26.757 9.55068 26.7196 9.78729C26.7067 9.86901 26.7334 9.92319 26.8258 9.92433C27.3241 9.93045 27.8225 9.93024 28.2746 9.67723C28.7405 9.41645 28.982 9.01442 28.9912 8.48662C29.0007 7.93807 28.972 7.38823 28.9981 6.84074C29.0416 5.92979 28.3328 4.93107 27.3624 4.62627C26.7911 4.44685 26.1969 4.38901 25.61 4.29353C24.8313 4.16683 24.0509 4.05067 23.271 3.93106C22.7572 3.85226 22.2435 3.77294 21.7289 3.69979C21.6369 3.68672 21.5611 3.65315 21.4899 3.60028C20.0958 2.56505 18.699 1.53322 17.3091 0.492417C16.8752 0.167535 16.3925 0.00241164 15.8557 0.00158724C13.5146 -0.00200965 11.1735 0.00275766 8.83246 2.33791e-06C7.96475 -0.0010185 7.22196 0.332366 6.52522 0.808056C5.57205 1.45882 4.65621 2.16011 3.7274 2.84339C3.18771 3.24042 2.58552 3.45796 1.94866 3.62029C1.59017 3.71167 1.23563 3.81913 0.88167 3.92694C0.316313 4.09913 0.0147228 4.47797 0.00858307 5.07051C-0.00252724 6.14288 -0.00372314 7.21556 0.0101833 8.28787C0.0154057 8.69041 0.209602 9.03158 0.550194 9.24801C1.17179 9.64299 1.8535 9.88795 2.59871 9.9236C2.86493 9.93634 2.87324 9.92533 2.85611 9.65232C2.80927 8.90604 2.9843 8.21402 3.39406 7.59047C3.96143 6.7271 4.75541 6.18272 5.795 6.03784C7.74607 5.76594 9.29598 7.14566 9.62546 8.79282C9.68453 9.08814 9.68367 9.38836 9.66739 9.68634C9.65701 9.87632 9.71926 9.92988 9.91072 9.92937C12.2329 9.92314 14.5551 9.92507 16.8774 9.92487C17.192 9.92485 17.5067 9.92481 17.8402 9.92477ZM8.04188 1.42781C8.30485 1.3155 8.58261 1.25683 8.86585 1.25471C9.82196 1.24756 10.7782 1.25438 11.7343 1.24941C11.889 1.24861 11.941 1.29749 11.9394 1.45372C11.9321 2.15171 11.9362 2.84981 11.936 3.54788C11.936 3.80448 11.9358 3.80513 11.674 3.80516C9.56666 3.80546 7.45932 3.80554 5.35198 3.80541C5.29543 3.80541 5.23743 3.80974 5.18266 3.79912C5.08574 3.78032 5.00392 3.73462 4.97979 3.62897C4.95672 3.52798 5.01348 3.47032 5.09131 3.41409C5.60433 3.04348 6.10995 2.66268 6.62709 2.29788C7.07185 1.98414 7.50253 1.64565 8.04188 1.42781ZM13.2073 2.71455C13.2074 2.3093 13.2071 1.90404 13.2079 1.49879C13.2083 1.26708 13.2203 1.25266 13.4514 1.25225C14.2631 1.25078 15.0749 1.24759 15.8865 1.25389C16.1413 1.25587 16.3789 1.32434 16.5888 1.48529C17.1456 1.91235 17.7111 2.3284 18.2687 2.75457C18.7055 3.08843 19.1356 3.43087 19.5913 3.78715C19.4788 3.79451 19.3984 3.80432 19.318 3.80436C17.3484 3.80528 15.3789 3.80379 13.4093 3.80772C13.246 3.80805 13.2034 3.73931 13.2065 3.59361C13.2124 3.31318 13.2076 3.03253 13.2073 2.71455Z" fill="#4D7DBF"/>
<path d="M23.8821 6.91081C22.4779 6.60763 21.1316 7.50073 20.8166 8.84239C20.4809 10.2728 21.3802 11.6894 22.8386 11.9568C24.2001 12.2065 25.5131 11.3514 25.812 10.0059C26.1194 8.6221 25.3126 7.23154 23.8821 6.91081Z" fill="#4D7DBF"/>
<path d="M4.02448 10.6529C4.43073 11.3353 4.98978 11.7999 5.77422 11.9506C7.11826 12.2089 8.38511 11.4137 8.73305 10.0993C9.11009 8.67501 8.242 7.22371 6.83096 6.89774C5.42191 6.57223 3.94264 7.57077 3.73585 8.99565C3.65119 9.57897 3.75623 10.1205 4.02448 10.6529Z" fill="#4D7DBF"/>
</svg>
