<svg width="12" height="12" viewBox="0 0 12 12" fill="none" xmlns="http://www.w3.org/2000/svg">
	<mask id="mask0_127_58479" style="mask-type:alpha" maskUnits="userSpaceOnUse" x="0" y="0" width="12" height="12">
		<rect width="12" height="12" fill="#D9D9D9" />
	</mask>
	<g mask="url(#mask0_127_58479)">
		<path d="M2.5 10.5C2.225 10.5 1.98958 10.4021 1.79375 10.2063C1.59792 10.0104 1.5 9.775 1.5 9.5V2.5C1.5 2.225 1.59792 1.98958 1.79375 1.79375C1.98958 1.59792 2.225 1.5 2.5 1.5H9.5C9.775 1.5 10.0104 1.59792 10.2063 1.79375C10.4021 1.98958 10.5 2.225 10.5 2.5V9.5C10.5 9.775 10.4021 10.0104 10.2063 10.2063C10.0104 10.4021 9.775 10.5 9.5 10.5H2.5ZM2.5 9.5H9.5V2.5H2.5V9.5ZM3.5 8.5H8.5C8.6 8.5 8.675 8.45417 8.725 8.3625C8.775 8.27083 8.76667 8.18333 8.7 8.1L7.325 6.2625C7.275 6.19583 7.20833 6.1625 7.125 6.1625C7.04167 6.1625 6.975 6.19583 6.925 6.2625L5.625 8L4.7 6.7625C4.65 6.69583 4.58333 6.6625 4.5 6.6625C4.41667 6.6625 4.35 6.69583 4.3 6.7625L3.3 8.1C3.23333 8.18333 3.225 8.27083 3.275 8.3625C3.325 8.45417 3.4 8.5 3.5 8.5Z" fill="white" />
	</g>
</svg>
