<svg width="18" height="18" viewBox="0 0 18 18" fill="none" xmlns="http://www.w3.org/2000/svg">
<path d="M9 16.875C8.93837 16.8744 8.87844 16.8548 8.82844 16.8187C8.58375 16.6303 2.8125 12.1781 2.8125 7.3125C2.8125 5.67147 3.4644 4.09766 4.62478 2.93728C5.78516 1.7769 7.35897 1.125 9 1.125C10.641 1.125 12.2148 1.7769 13.3752 2.93728C14.5356 4.09766 15.1875 5.67147 15.1875 7.3125C15.1875 12.1781 9.41625 16.6303 9.17156 16.8187C9.12156 16.8548 9.06163 16.8744 9 16.875ZM9 1.6875C7.50816 1.6875 6.07742 2.28013 5.02252 3.33502C3.96763 4.38992 3.375 5.82066 3.375 7.3125C3.375 11.4497 8.04094 15.4688 9 16.2338C9.95906 15.4688 14.625 11.4469 14.625 7.3125C14.625 5.82066 14.0324 4.38992 12.9775 3.33502C11.9226 2.28013 10.4918 1.6875 9 1.6875Z" fill="#4D7DBF" stroke="#4D7DBF" stroke-width="0.5"/>
<path d="M9 10.4063C8.38812 10.4063 7.78997 10.2248 7.28121 9.88486C6.77244 9.54492 6.37591 9.06174 6.14175 8.49643C5.90759 7.93112 5.84632 7.30907 5.9657 6.70894C6.08507 6.10881 6.37972 5.55756 6.81239 5.12489C7.24506 4.69222 7.79631 4.39757 8.39644 4.2782C8.99657 4.15882 9.61862 4.22009 10.1839 4.45425C10.7492 4.68841 11.2324 5.08494 11.5724 5.59371C11.9123 6.10247 12.0938 6.70062 12.0938 7.3125C12.0938 8.13302 11.7678 8.91992 11.1876 9.50011C10.6074 10.0803 9.82051 10.4063 9 10.4063ZM9 4.78125C8.49937 4.78125 8.00998 4.92971 7.59371 5.20784C7.17745 5.48598 6.85302 5.88131 6.66143 6.34383C6.46985 6.80636 6.41972 7.31531 6.51739 7.80632C6.61506 8.29734 6.85614 8.74836 7.21014 9.10237C7.56414 9.45637 8.01516 9.69745 8.50618 9.79512C8.99719 9.89278 9.50614 9.84266 9.96867 9.65107C10.4312 9.45949 10.8265 9.13505 11.1047 8.71879C11.3828 8.30253 11.5313 7.81314 11.5313 7.3125C11.5313 6.64117 11.2646 5.99734 10.7899 5.52264C10.3152 5.04794 9.67133 4.78125 9 4.78125Z" fill="#4D7DBF" stroke="#4D7DBF" stroke-width="0.5"/>
</svg>
