<svg width="25" height="24" viewBox="0 0 25 24" fill="none" xmlns="http://www.w3.org/2000/svg">
<path d="M13.1961 2.05125V4.05125C17.5861 4.59125 20.6961 8.58125 20.1561 12.9713C19.6961 16.6113 16.8361 19.5012 13.1961 19.9312V21.9312C18.6961 21.3813 22.6961 16.5013 22.1461 11.0013C21.6961 6.25125 17.9261 2.50125 13.1961 2.03125V2.05125ZM5.86609 19.7412C7.38106 21.0036 9.23546 21.7899 11.1961 22.0012V20.0012C9.77347 19.8174 8.42645 19.2544 7.29609 18.3713L5.86609 19.7412ZM7.29609 5.74125C8.41609 4.84125 9.76609 4.26125 11.1961 4.06125V2.06125C9.24609 2.25125 7.38609 3.00125 5.86609 4.26125L7.29609 5.74125ZM5.88609 7.10125L4.45609 5.67125C3.20654 7.18907 2.43719 9.04456 2.24609 11.0013H4.24609C4.43609 9.58125 4.99609 8.23125 5.88609 7.10125ZM4.25609 13.0013H2.25609C2.45609 14.9613 3.22609 16.8112 4.46609 18.3312L5.88609 16.9012C5.00294 15.7709 4.43995 14.4239 4.25609 13.0013ZM10.1961 16.5013L16.1961 12.0013L10.1961 7.50125V16.5013Z" fill="white"/>
</svg>
