<svg width="16" height="16" viewBox="0 0 16 16" fill="none" xmlns="http://www.w3.org/2000/svg">
<path d="M3.12532 4.1437L4.53398 12.6524C4.59842 13.0419 4.79904 13.3959 5.10012 13.6513C5.40119 13.9067 5.78317 14.047 6.17798 14.047H8.40998M12.8753 4.1437L11.4673 12.6524C11.4029 13.0419 11.2023 13.3959 10.9012 13.6513C10.6001 13.9067 10.2181 14.047 9.82332 14.047H7.59132M6.68198 7.41237V10.7784M9.31932 7.41237V10.7784M1.83398 4.1437H14.1673M9.85198 4.1437V2.95703C9.85198 2.69181 9.74663 2.43746 9.55909 2.24992C9.37155 2.06239 9.1172 1.95703 8.85198 1.95703H7.14932C6.8841 1.95703 6.62975 2.06239 6.44221 2.24992C6.25467 2.43746 6.14932 2.69181 6.14932 2.95703V4.1437H9.85198Z" stroke="black" stroke-linecap="round" stroke-linejoin="round"/>
</svg>
