 <svg viewBox="0 0 25 24" fill="none" xmlns="http://www.w3.org/2000/svg">
  <path
    d="M14.4023 8.5C14.0045 8.5 13.623 8.65804 13.3417 8.93934C13.0604 9.22064 12.9023 9.60218 12.9023 10C12.9023 10.3978 13.0604 10.7794 13.3417 11.0607C13.623 11.342 14.0045 11.5 14.4023 11.5C14.8002 11.5 15.1817 11.342 15.463 11.0607C15.7443 10.7794 15.9023 10.3978 15.9023 10C15.9023 9.60218 15.7443 9.22064 15.463 8.93934C15.1817 8.65804 14.8002 8.5 14.4023 8.5ZM14.4023 12.5C14.0045 12.5 13.623 12.658 13.3417 12.9393C13.0604 13.2206 12.9023 13.6022 12.9023 14C12.9023 14.3978 13.0604 14.7794 13.3417 15.0607C13.623 15.342 14.0045 15.5 14.4023 15.5C14.8002 15.5 15.1817 15.342 15.463 15.0607C15.7443 14.7794 15.9023 14.3978 15.9023 14C15.9023 13.6022 15.7443 13.2206 15.463 12.9393C15.1817 12.658 14.8002 12.5 14.4023 12.5ZM10.4023 17C10.1371 17 9.88277 17.1054 9.69524 17.2929C9.5077 17.4804 9.40234 17.7348 9.40234 18C9.40234 18.2652 9.5077 18.5196 9.69524 18.7071C9.88277 18.8946 10.1371 19 10.4023 19C10.6676 19 10.9219 18.8946 11.1095 18.7071C11.297 18.5196 11.4023 18.2652 11.4023 18C11.4023 17.7348 11.297 17.4804 11.1095 17.2929C10.9219 17.1054 10.6676 17 10.4023 17ZM10.4023 8.5C10.0045 8.5 9.62299 8.65804 9.34168 8.93934C9.06038 9.22064 8.90234 9.60218 8.90234 10C8.90234 10.3978 9.06038 10.7794 9.34168 11.0607C9.62299 11.342 10.0045 11.5 10.4023 11.5C10.8002 11.5 11.1817 11.342 11.463 11.0607C11.7443 10.7794 11.9023 10.3978 11.9023 10C11.9023 9.60218 11.7443 9.22064 11.463 8.93934C11.1817 8.65804 10.8002 8.5 10.4023 8.5ZM14.4023 20.5C14.2697 20.5 14.1426 20.5527 14.0488 20.6464C13.955 20.7402 13.9023 20.8674 13.9023 21C13.9023 21.1326 13.955 21.2598 14.0488 21.3536C14.1426 21.4473 14.2697 21.5 14.4023 21.5C14.535 21.5 14.6621 21.4473 14.7559 21.3536C14.8497 21.2598 14.9023 21.1326 14.9023 21C14.9023 20.8674 14.8497 20.7402 14.7559 20.6464C14.6621 20.5527 14.535 20.5 14.4023 20.5ZM14.4023 17C14.1371 17 13.8828 17.1054 13.6952 17.2929C13.5077 17.4804 13.4023 17.7348 13.4023 18C13.4023 18.2652 13.5077 18.5196 13.6952 18.7071C13.8828 18.8946 14.1371 19 14.4023 19C14.6676 19 14.9219 18.8946 15.1095 18.7071C15.297 18.5196 15.4023 18.2652 15.4023 18C15.4023 17.7348 15.297 17.4804 15.1095 17.2929C14.9219 17.1054 14.6676 17 14.4023 17ZM21.4023 13.5C21.2697 13.5 21.1426 13.5527 21.0488 13.6464C20.955 13.7402 20.9023 13.8674 20.9023 14C20.9023 14.1326 20.955 14.2598 21.0488 14.3536C21.1426 14.4473 21.2697 14.5 21.4023 14.5C21.535 14.5 21.6621 14.4473 21.7559 14.3536C21.8497 14.2598 21.9023 14.1326 21.9023 14C21.9023 13.8674 21.8497 13.7402 21.7559 13.6464C21.6621 13.5527 21.535 13.5 21.4023 13.5ZM18.4023 5C18.1371 5 17.8828 5.10536 17.6952 5.29289C17.5077 5.48043 17.4023 5.73478 17.4023 6C17.4023 6.26522 17.5077 6.51957 17.6952 6.70711C17.8828 6.89464 18.1371 7 18.4023 7C18.6676 7 18.9219 6.89464 19.1095 6.70711C19.297 6.51957 19.4023 6.26522 19.4023 6C19.4023 5.73478 19.297 5.48043 19.1095 5.29289C18.9219 5.10536 18.6676 5 18.4023 5ZM18.4023 9C18.1371 9 17.8828 9.10536 17.6952 9.29289C17.5077 9.48043 17.4023 9.73478 17.4023 10C17.4023 10.2652 17.5077 10.5196 17.6952 10.7071C17.8828 10.8946 18.1371 11 18.4023 11C18.6676 11 18.9219 10.8946 19.1095 10.7071C19.297 10.5196 19.4023 10.2652 19.4023 10C19.4023 9.73478 19.297 9.48043 19.1095 9.29289C18.9219 9.10536 18.6676 9 18.4023 9ZM18.4023 17C18.1371 17 17.8828 17.1054 17.6952 17.2929C17.5077 17.4804 17.4023 17.7348 17.4023 18C17.4023 18.2652 17.5077 18.5196 17.6952 18.7071C17.8828 18.8946 18.1371 19 18.4023 19C18.6676 19 18.9219 18.8946 19.1095 18.7071C19.297 18.5196 19.4023 18.2652 19.4023 18C19.4023 17.7348 19.297 17.4804 19.1095 17.2929C18.9219 17.1054 18.6676 17 18.4023 17ZM18.4023 13C18.1371 13 17.8828 13.1054 17.6952 13.2929C17.5077 13.4804 17.4023 13.7348 17.4023 14C17.4023 14.2652 17.5077 14.5196 17.6952 14.7071C17.8828 14.8946 18.1371 15 18.4023 15C18.6676 15 18.9219 14.8946 19.1095 14.7071C19.297 14.5196 19.4023 14.2652 19.4023 14C19.4023 13.7348 19.297 13.4804 19.1095 13.2929C18.9219 13.1054 18.6676 13 18.4023 13ZM10.4023 12.5C10.0045 12.5 9.62299 12.658 9.34168 12.9393C9.06038 13.2206 8.90234 13.6022 8.90234 14C8.90234 14.3978 9.06038 14.7794 9.34168 15.0607C9.62299 15.342 10.0045 15.5 10.4023 15.5C10.8002 15.5 11.1817 15.342 11.463 15.0607C11.7443 14.7794 11.9023 14.3978 11.9023 14C11.9023 13.6022 11.7443 13.2206 11.463 12.9393C11.1817 12.658 10.8002 12.5 10.4023 12.5ZM10.4023 7C10.6676 7 10.9219 6.89464 11.1095 6.70711C11.297 6.51957 11.4023 6.26522 11.4023 6C11.4023 5.73478 11.297 5.48043 11.1095 5.29289C10.9219 5.10536 10.6676 5 10.4023 5C10.1371 5 9.88277 5.10536 9.69524 5.29289C9.5077 5.48043 9.40234 5.73478 9.40234 6C9.40234 6.26522 9.5077 6.51957 9.69524 6.70711C9.88277 6.89464 10.1371 7 10.4023 7ZM10.4023 3.5C10.535 3.5 10.6621 3.44732 10.7559 3.35355C10.8497 3.25979 10.9023 3.13261 10.9023 3C10.9023 2.86739 10.8497 2.74021 10.7559 2.64645C10.6621 2.55268 10.535 2.5 10.4023 2.5C10.2697 2.5 10.1426 2.55268 10.0488 2.64645C9.95502 2.74021 9.90234 2.86739 9.90234 3C9.90234 3.13261 9.95502 3.25979 10.0488 3.35355C10.1426 3.44732 10.2697 3.5 10.4023 3.5ZM10.4023 20.5C10.2697 20.5 10.1426 20.5527 10.0488 20.6464C9.95502 20.7402 9.90234 20.8674 9.90234 21C9.90234 21.1326 9.95502 21.2598 10.0488 21.3536C10.1426 21.4473 10.2697 21.5 10.4023 21.5C10.535 21.5 10.6621 21.4473 10.7559 21.3536C10.8497 21.2598 10.9023 21.1326 10.9023 21C10.9023 20.8674 10.8497 20.7402 10.7559 20.6464C10.6621 20.5527 10.535 20.5 10.4023 20.5ZM3.40234 13.5C3.26974 13.5 3.14256 13.5527 3.04879 13.6464C2.95502 13.7402 2.90234 13.8674 2.90234 14C2.90234 14.1326 2.95502 14.2598 3.04879 14.3536C3.14256 14.4473 3.26974 14.5 3.40234 14.5C3.53495 14.5 3.66213 14.4473 3.7559 14.3536C3.84967 14.2598 3.90234 14.1326 3.90234 14C3.90234 13.8674 3.84967 13.7402 3.7559 13.6464C3.66213 13.5527 3.53495 13.5 3.40234 13.5ZM14.4023 3.5C14.535 3.5 14.6621 3.44732 14.7559 3.35355C14.8497 3.25979 14.9023 3.13261 14.9023 3C14.9023 2.86739 14.8497 2.74021 14.7559 2.64645C14.6621 2.55268 14.535 2.5 14.4023 2.5C14.2697 2.5 14.1426 2.55268 14.0488 2.64645C13.955 2.74021 13.9023 2.86739 13.9023 3C13.9023 3.13261 13.955 3.25979 14.0488 3.35355C14.1426 3.44732 14.2697 3.5 14.4023 3.5ZM14.4023 7C14.6676 7 14.9219 6.89464 15.1095 6.70711C15.297 6.51957 15.4023 6.26522 15.4023 6C15.4023 5.73478 15.297 5.48043 15.1095 5.29289C14.9219 5.10536 14.6676 5 14.4023 5C14.1371 5 13.8828 5.10536 13.6952 5.29289C13.5077 5.48043 13.4023 5.73478 13.4023 6C13.4023 6.26522 13.5077 6.51957 13.6952 6.70711C13.8828 6.89464 14.1371 7 14.4023 7ZM21.4023 10.5C21.535 10.5 21.6621 10.4473 21.7559 10.3536C21.8497 10.2598 21.9023 10.1326 21.9023 10C21.9023 9.86739 21.8497 9.74021 21.7559 9.64645C21.6621 9.55268 21.535 9.5 21.4023 9.5C21.2697 9.5 21.1426 9.55268 21.0488 9.64645C20.955 9.74021 20.9023 9.86739 20.9023 10C20.9023 10.1326 20.955 10.2598 21.0488 10.3536C21.1426 10.4473 21.2697 10.5 21.4023 10.5ZM6.40234 5C6.13713 5 5.88277 5.10536 5.69524 5.29289C5.5077 5.48043 5.40234 5.73478 5.40234 6C5.40234 6.26522 5.5077 6.51957 5.69524 6.70711C5.88277 6.89464 6.13713 7 6.40234 7C6.66756 7 6.92191 6.89464 7.10945 6.70711C7.29699 6.51957 7.40234 6.26522 7.40234 6C7.40234 5.73478 7.29699 5.48043 7.10945 5.29289C6.92191 5.10536 6.66756 5 6.40234 5ZM3.40234 9.5C3.26974 9.5 3.14256 9.55268 3.04879 9.64645C2.95502 9.74021 2.90234 9.86739 2.90234 10C2.90234 10.1326 2.95502 10.2598 3.04879 10.3536C3.14256 10.4473 3.26974 10.5 3.40234 10.5C3.53495 10.5 3.66213 10.4473 3.7559 10.3536C3.84967 10.2598 3.90234 10.1326 3.90234 10C3.90234 9.86739 3.84967 9.74021 3.7559 9.64645C3.66213 9.55268 3.53495 9.5 3.40234 9.5ZM6.40234 9C6.13713 9 5.88277 9.10536 5.69524 9.29289C5.5077 9.48043 5.40234 9.73478 5.40234 10C5.40234 10.2652 5.5077 10.5196 5.69524 10.7071C5.88277 10.8946 6.13713 11 6.40234 11C6.66756 11 6.92191 10.8946 7.10945 10.7071C7.29699 10.5196 7.40234 10.2652 7.40234 10C7.40234 9.73478 7.29699 9.48043 7.10945 9.29289C6.92191 9.10536 6.66756 9 6.40234 9ZM6.40234 17C6.13713 17 5.88277 17.1054 5.69524 17.2929C5.5077 17.4804 5.40234 17.7348 5.40234 18C5.40234 18.2652 5.5077 18.5196 5.69524 18.7071C5.88277 18.8946 6.13713 19 6.40234 19C6.66756 19 6.92191 18.8946 7.10945 18.7071C7.29699 18.5196 7.40234 18.2652 7.40234 18C7.40234 17.7348 7.29699 17.4804 7.10945 17.2929C6.92191 17.1054 6.66756 17 6.40234 17ZM6.40234 13C6.13713 13 5.88277 13.1054 5.69524 13.2929C5.5077 13.4804 5.40234 13.7348 5.40234 14C5.40234 14.2652 5.5077 14.5196 5.69524 14.7071C5.88277 14.8946 6.13713 15 6.40234 15C6.66756 15 6.92191 14.8946 7.10945 14.7071C7.29699 14.5196 7.40234 14.2652 7.40234 14C7.40234 13.7348 7.29699 13.4804 7.10945 13.2929C6.92191 13.1054 6.66756 13 6.40234 13Z"
  />
</svg>