<svg width="24" height="24" viewBox="0 0 24 24" fill="none" xmlns="http://www.w3.org/2000/svg">
	<path d="M21.7495 20.6929L16.0855 15.0289C17.4466 13.3949 18.1253 11.299 17.9805 9.17731C17.8356 7.05561 16.8784 5.07143 15.3079 3.63752C13.7374 2.20361 11.6745 1.43039 9.54844 1.4787C7.42236 1.52701 5.39674 2.39313 3.89298 3.89689C2.38922 5.40065 1.5231 7.42626 1.47479 9.55235C1.42648 11.6784 2.19971 13.7413 3.63361 15.3118C5.06752 16.8823 7.0517 17.8396 9.1734 17.9844C11.2951 18.1292 13.391 17.4505 15.025 16.0894L20.689 21.7534L21.7495 20.6929ZM2.99948 9.75338C2.99948 8.41836 3.39536 7.11332 4.13706 6.00328C4.87876 4.89325 5.93296 4.02809 7.16636 3.5172C8.39976 3.0063 9.75696 2.87263 11.0663 3.13308C12.3757 3.39353 13.5784 4.03641 14.5224 4.98041C15.4665 5.92442 16.1093 7.12715 16.3698 8.43652C16.6302 9.74589 16.4966 11.1031 15.9857 12.3365C15.4748 13.5699 14.6096 14.6241 13.4996 15.3658C12.3895 16.1075 11.0845 16.5034 9.74948 16.5034C7.95987 16.5014 6.24414 15.7896 4.9787 14.5242C3.71326 13.2587 3.00146 11.543 2.99948 9.75338Z" fill="#ffffff" />
</svg>
