<svg width="24" height="24" viewBox="0 0 24 24" fill="none" xmlns="http://www.w3.org/2000/svg">
<g clip-path="url(#clip0_681_62544)">
<mask id="mask0_681_62544" style="mask-type:luminance" maskUnits="userSpaceOnUse" x="0" y="0" width="24" height="24">
<path d="M24 0H0V24H24V0Z" fill="white"/>
</mask>
<g mask="url(#mask0_681_62544)">
<path d="M7 14C8.10457 14 9 13.1046 9 12C9 10.8954 8.10457 10 7 10C5.89543 10 5 10.8954 5 12C5 13.1046 5.89543 14 7 14Z" stroke="white" stroke-linejoin="round"/>
<path d="M17 8C18.1046 8 19 7.10457 19 6C19 4.89543 18.1046 4 17 4C15.8954 4 15 4.89543 15 6C15 7.10457 15.8954 8 17 8Z" stroke="white" stroke-linejoin="round"/>
<path d="M15 7L8.5 11" stroke="white"/>
<path d="M17 20C18.1046 20 19 19.1046 19 18C19 16.8954 18.1046 16 17 16C15.8954 16 15 16.8954 15 18C15 19.1046 15.8954 20 17 20Z" stroke="white" stroke-linejoin="round"/>
<path d="M8.5 13.5L15 17" stroke="white"/>
</g>
</g>
<defs>
<clipPath id="clip0_681_62544">
<rect width="24" height="24" fill="white"/>
</clipPath>
</defs>
</svg>
