<svg width="14" height="16" viewBox="0 0 14 16" fill="none" xmlns="http://www.w3.org/2000/svg">
<path d="M13.4271 4.11971C13.4189 3.68773 13.4111 3.27965 13.4111 2.88486C13.4111 2.57556 13.1604 2.32481 12.851 2.32481C10.4559 2.32481 8.63234 1.63649 7.11231 0.158576C6.89487 -0.0528959 6.54883 -0.0528212 6.33146 0.158576C4.81159 1.63649 2.98832 2.32481 0.593358 2.32481C0.284066 2.32481 0.0333169 2.57556 0.0333169 2.88486C0.0333169 3.27972 0.025551 3.68795 0.0172624 4.12001C-0.0595006 8.14006 -0.164639 13.6457 6.53846 15.9691C6.59789 15.9897 6.65987 16 6.72185 16C6.78383 16 6.84588 15.9897 6.90524 15.9691C13.6089 13.6456 13.5039 8.13983 13.4271 4.11971ZM6.72192 14.8457C0.97314 12.7573 1.06006 8.18254 1.1372 4.14136C1.14182 3.89883 1.14631 3.66376 1.14944 3.43332C3.39259 3.33864 5.18637 2.6589 6.72192 1.32122C8.25763 2.6589 10.0517 3.33871 12.295 3.43332C12.2981 3.66369 12.3026 3.8986 12.3073 4.14099C12.3843 8.18232 12.4712 12.7573 6.72192 14.8457Z" fill="#4D7DBF"/>
<path d="M8.65042 6.05462L5.94736 8.75753L4.7939 7.60407C4.57518 7.38543 4.22057 7.38543 4.00193 7.60407C3.78321 7.82286 3.78321 8.1774 4.00193 8.39612L5.55137 9.94556C5.66069 10.0549 5.80406 10.1095 5.94736 10.1095C6.09066 10.1095 6.23403 10.0549 6.34335 9.94556L9.44231 6.84667C9.6611 6.62796 9.6611 6.27334 9.44239 6.0547C9.22375 5.83598 8.86913 5.83591 8.65042 6.05462Z" fill="#4D7DBF"/>
</svg>
