<svg width="20" height="15" viewBox="0 0 20 15" fill="none" xmlns="http://www.w3.org/2000/svg">
<path d="M1.00009 15.0006H19.0001C19.1823 15 19.361 14.9498 19.5168 14.8552C19.6726 14.7607 19.7996 14.6254 19.8843 14.464C19.9689 14.3027 20.008 14.1212 19.9972 13.9393C19.9864 13.7574 19.9262 13.5819 19.8231 13.4316L10.8231 0.431594C10.4501 -0.107406 9.55209 -0.107406 9.17809 0.431594L0.178085 13.4316C0.0739103 13.5815 0.0128196 13.7572 0.00145064 13.9394C-0.00991832 14.1216 0.0288693 14.3035 0.113599 14.4652C0.198329 14.6269 0.325761 14.7623 0.48205 14.8567C0.638338 14.9511 0.817505 15.0009 1.00009 15.0006Z" fill="black"/>
</svg>
