<svg width="20" height="21" viewBox="0 0 20 21" fill="none" xmlns="http://www.w3.org/2000/svg">
<path d="M10 14.6654V8.83203M10 8.83203L12.5 11.332M10 8.83203L7.5 11.332" stroke="white" stroke-width="2" stroke-linecap="round" stroke-linejoin="round"/>
<path d="M13.3307 6.33203H9.9974H6.66406" stroke="white" stroke-width="2" stroke-linecap="round"/>
<path d="M18.3307 10.5013C18.3307 14.4296 18.3307 16.3939 17.1103 17.6142C15.89 18.8346 13.9257 18.8346 9.99739 18.8346C6.06902 18.8346 4.10484 18.8346 2.88445 17.6142C1.66406 16.3939 1.66406 14.4296 1.66406 10.5013C1.66406 6.57293 1.66406 4.60874 2.88445 3.38836C4.10484 2.16797 6.06902 2.16797 9.99739 2.16797C13.9257 2.16797 15.89 2.16797 17.1103 3.38836C17.9218 4.19981 18.1937 5.34009 18.2848 7.16797" stroke="white" stroke-width="2" stroke-linecap="round"/>
</svg>
