<svg width="30" height="30" viewBox="0 0 30 30" fill="none" xmlns="http://www.w3.org/2000/svg">
<path d="M0 5.9375C0 4.73 0.98 3.75 2.1875 3.75H27.8125C29.02 3.75 30 4.73 30 5.9375V24.0625C30 24.6427 29.7695 25.1991 29.3593 25.6093C28.9491 26.0195 28.3927 26.25 27.8125 26.25H2.1875C1.60734 26.25 1.05094 26.0195 0.640704 25.6093C0.230468 25.1991 0 24.6427 0 24.0625L0 5.9375ZM2.1875 5.625C2.10462 5.625 2.02513 5.65792 1.96653 5.71653C1.90792 5.77513 1.875 5.85462 1.875 5.9375V24.0625C1.875 24.235 2.015 24.375 2.1875 24.375H27.8125C27.8954 24.375 27.9749 24.3421 28.0335 24.2835C28.0921 24.2249 28.125 24.1454 28.125 24.0625V5.9375C28.125 5.85462 28.0921 5.77513 28.0335 5.71653C27.9749 5.65792 27.8954 5.625 27.8125 5.625H2.1875Z" fill="white"/>
<path d="M11.25 19.4785V10.5185C11.2502 10.4064 11.2805 10.2964 11.3378 10.2C11.3951 10.1037 11.4773 10.0245 11.5757 9.97085C11.6741 9.91716 11.7852 9.89094 11.8972 9.89493C12.0092 9.89891 12.1181 9.93295 12.2125 9.99349L19.1825 14.4722C19.2708 14.5288 19.3434 14.6066 19.3937 14.6986C19.444 14.7905 19.4703 14.8937 19.4703 14.9985C19.4703 15.1033 19.444 15.2064 19.3937 15.2984C19.3434 15.3904 19.2708 15.4682 19.1825 15.5247L12.2125 20.0047C12.1181 20.0653 12.0092 20.0993 11.8972 20.1033C11.7852 20.1073 11.6741 20.0811 11.5757 20.0274C11.4773 19.9737 11.3951 19.8945 11.3378 19.7982C11.2805 19.7018 11.2502 19.5918 11.25 19.4797V19.4785Z" fill="white"/>
</svg>
