<svg width="12" height="12" viewBox="0 0 12 12" fill="none" xmlns="http://www.w3.org/2000/svg">
	<mask id="mask0_141_56056" style="mask-type:alpha" maskUnits="userSpaceOnUse" x="0" y="0" width="12" height="12">
		<rect width="12" height="12" fill="#D9D9D9" />
	</mask>
	<g mask="url(#mask0_141_56056)">
		<path d="M2 10C1.725 10 1.48958 9.90208 1.29375 9.70625C1.09792 9.51042 1 9.275 1 9V3C1 2.725 1.09792 2.48958 1.29375 2.29375C1.48958 2.09792 1.725 2 2 2H8C8.275 2 8.51042 2.09792 8.70625 2.29375C8.90208 2.48958 9 2.725 9 3V5.25L10.575 3.675C10.6583 3.59167 10.75 3.57083 10.85 3.6125C10.95 3.65417 11 3.73333 11 3.85V8.15C11 8.26667 10.95 8.34583 10.85 8.3875C10.75 8.42917 10.6583 8.40833 10.575 8.325L9 6.75V9C9 9.275 8.90208 9.51042 8.70625 9.70625C8.51042 9.90208 8.275 10 8 10H2ZM2 9H8V3H2V9Z" fill="white" />
	</g>
</svg>
