<svg width="12" height="12" viewBox="0 0 12 12" fill="none" xmlns="http://www.w3.org/2000/svg">
	<mask id="mask0_141_56051" style="mask-type:alpha" maskUnits="userSpaceOnUse" x="0" y="0" width="12" height="12">
		<rect width="12" height="12" fill="#D9D9D9" />
	</mask>
	<g mask="url(#mask0_141_56051)">
		<path d="M9.5 5.9875C9.5 5.29583 9.31667 4.66458 8.95 4.09375C8.58333 3.52292 8.09167 3.09583 7.475 2.8125C7.35 2.75417 7.25833 2.66458 7.2 2.54375C7.14167 2.42292 7.13333 2.3 7.175 2.175C7.225 2.04167 7.31458 1.94583 7.44375 1.8875C7.57292 1.82917 7.70417 1.82917 7.8375 1.8875C8.64583 2.24583 9.29167 2.79375 9.775 3.53125C10.2583 4.26875 10.5 5.0875 10.5 5.9875C10.5 6.8875 10.2583 7.70625 9.775 8.44375C9.29167 9.18125 8.64583 9.72917 7.8375 10.0875C7.70417 10.1458 7.57292 10.1458 7.44375 10.0875C7.31458 10.0292 7.225 9.93333 7.175 9.8C7.13333 9.675 7.14167 9.55208 7.2 9.43125C7.25833 9.31042 7.35 9.22083 7.475 9.1625C8.09167 8.87917 8.58333 8.45208 8.95 7.88125C9.31667 7.31042 9.5 6.67917 9.5 5.9875ZM3.5 7.5H2C1.85833 7.5 1.73958 7.45208 1.64375 7.35625C1.54792 7.26042 1.5 7.14167 1.5 7V5C1.5 4.85833 1.54792 4.73958 1.64375 4.64375C1.73958 4.54792 1.85833 4.5 2 4.5H3.5L5.15 2.85C5.30833 2.69167 5.48958 2.65625 5.69375 2.74375C5.89792 2.83125 6 2.9875 6 3.2125V8.7875C6 9.0125 5.89792 9.16875 5.69375 9.25625C5.48958 9.34375 5.30833 9.30833 5.15 9.15L3.5 7.5ZM8.25 6C8.25 6.35 8.17083 6.68125 8.0125 6.99375C7.85417 7.30625 7.64583 7.5625 7.3875 7.7625C7.30417 7.8125 7.21875 7.81458 7.13125 7.76875C7.04375 7.72292 7 7.65 7 7.55V4.425C7 4.325 7.04375 4.25208 7.13125 4.20625C7.21875 4.16042 7.30417 4.1625 7.3875 4.2125C7.64583 4.42083 7.85417 4.68333 8.0125 5C8.17083 5.31667 8.25 5.65 8.25 6ZM5 4.425L3.925 5.5H2.5V6.5H3.925L5 7.575V4.425Z" fill="white" />
	</g>
</svg>
